<svg id="bf6f8f29-0b46-46f8-b60a-c2bb8f1c26a6" data-name="Layer 1" xmlns="http://www.w3.org/2000/svg" width="924" height="377.61325" viewBox="0 0 924 377.61325"><path d="M747.5449,392.5728a11.003,11.003,0,0,1,14.8905,6.91461,10.59334,10.59334,0,0,1,.32019,1.435l43.93793,21.78814,10.16833-6.73852,12.6518,14.56531-15.52588,12.60983a11.14848,11.14848,0,0,1-13.30127.513L756.10734,412.832a10.51026,10.51026,0,0,1-1.0149.37009,11.00315,11.00315,0,0,1-14.01049-8.56076,10.70448,10.70448,0,0,1-.16254-1.33951A11.036,11.036,0,0,1,747.5449,392.5728Z" transform="translate(-138 -261.19338)" fill="#ffb8b8"/><path d="M202.79565,460.22569a6.5,6.5,0,0,0,6.5,6.5h10.60889l1.89111,3.42737V622.22569a6.5,6.5,0,0,0,13,0v-155.5H590.69687l.09878,155.5a6.5,6.5,0,0,0,13,0v-155.5h11.5a6.5,6.5,0,0,0,0-13h-406A6.5,6.5,0,0,0,202.79565,460.22569Z" transform="translate(-138 -261.19338)" fill="#e5e5e5"/><path d="M351.69684,552.12742v-24a4.00011,4.00011,0,0,0-4-4h-91a4.00012,4.00012,0,0,0-4,4v24Z" transform="translate(-138 -261.19338)" fill="#e5e5e5"/><rect x="114.69684" y="299.93405" width="99.00002" height="31" fill="#e5e5e5"/><path d="M252.69684,601.12742v24a4.00011,4.00011,0,0,0,4,4h91a4.0001,4.0001,0,0,0,4-4v-24Z" transform="translate(-138 -261.19338)" fill="#e5e5e5"/><circle cx="164.69684" cy="277.93405" r="3" fill="#fff"/><circle cx="164.69684" cy="317.93405" r="3" fill="#fff"/><circle cx="164.53607" cy="357.08703" r="3" fill="#fff"/><path d="M234,445.2597v7.94a1.6491,1.6491,0,0,0,1.74023,1.53h31.41993a1.94129,1.94129,0,0,0,.85986-.2l7.93018-3.97a1.44516,1.44516,0,0,0,0-2.66l-7.93018-3.97a1.94115,1.94115,0,0,0-.85986-.2H235.74023A1.64907,1.64907,0,0,0,234,445.2597Z" transform="translate(-138 -261.19338)" fill="#3f3d56"/><path d="M235.74023,443.72974H242v11h-6.25977a1.64909,1.64909,0,0,1-1.74023-1.53v-7.93994A1.64909,1.64909,0,0,1,235.74023,443.72974Z" transform="translate(-138 -261.19338)" fill="#6c63ff"/><path d="M989.44432,541.94815a24.745,24.745,0,0,1-23.895-4.20918c-8.36932-7.02458-10.99335-18.59754-13.12843-29.31351q-3.15759-15.84784-6.31515-31.69572l13.22144,9.10377c9.50806,6.54689,19.23033,13.30352,25.81367,22.78639s9.457,22.42781,4.16746,32.68872" transform="translate(-138 -261.19338)" fill="#e6e6e6"/><path d="M988.31414,580.3224c1.33818-9.74738,2.71418-19.62,1.77553-29.47185-.83365-8.74952-3.503-17.29536-8.93743-24.30235A40.42688,40.42688,0,0,0,970.78,517.14925c-1.03723-.65469-1.99187.98909-.95917,1.64092A38.43329,38.43329,0,0,1,985.02324,537.133c3.30977,8.4184,3.84128,17.59515,3.27091,26.53791-.34492,5.408-1.07591,10.78059-1.81254,16.14628a.98457.98457,0,0,0,.66366,1.16883.956.956,0,0,0,1.16885-.66366Z" transform="translate(-138 -261.19338)" fill="#f2f2f2"/><path d="M975.425,563.07414a18.21539,18.21539,0,0,1-15.87127,8.19152c-8.0343-.38137-14.73235-5.98882-20.76185-11.31244l-17.83408-15.74615,11.80321-.56487c8.48815-.4062,17.19531-.78511,25.28,1.83245s15.54081,8.91721,17.01913,17.2855" transform="translate(-138 -261.19338)" fill="#e6e6e6"/><path d="M992.09594,585.92572c-6.44088-11.39674-13.91176-24.06291-27.26092-28.11121a30.42064,30.42064,0,0,0-11.46637-1.184c-1.2174.105-.91341,1.98155.30179,1.87677a28.26111,28.26111,0,0,1,18.29854,4.84114c5.15949,3.51192,9.17673,8.39443,12.57686,13.57209,2.08269,3.1715,3.94824,6.4775,5.81414,9.77909.59631,1.05513,2.33924.2935,1.736-.774Z" transform="translate(-138 -261.19338)" fill="#f2f2f2"/><path d="M1002.41608,597.92162a13.79294,13.79294,0,0,0-8.45213-11.55236v-6.58865h-11.0507v6.79628a13.78576,13.78576,0,0,0-7.9919,11.34473l-2.59846,30.2058h32.69171Z" transform="translate(-138 -261.19338)" fill="#f2f2f2"/><path d="M138,629.19338a1,1,0,0,1,1-1l922.36371.36371c.55229,0,.63629.084.63629.63629a1,1,0,0,1-1,1H139A1,1,0,0,1,138,629.19338Z" transform="translate(-138 -261.19338)" fill="#ccc"/><path d="M377.28175,452.6511l3.28265-1.38221,2.25189-16.456h29.9879l2.44087,16.38874,2.93685,1.4684a.69741.69741,0,0,1-.31192,1.32117H377.5523A.69737.69737,0,0,1,377.28175,452.6511Z" transform="translate(-138 -261.19338)" fill="#e6e6e6"/><path d="M321.07928,434.08387V413.31138H474.212v20.77249a2.91847,2.91847,0,0,1-2.91192,2.91844H323.9912A2.91849,2.91849,0,0,1,321.07928,434.08387Z" transform="translate(-138 -261.19338)" fill="#ccc"/><path d="M320.92529,334.24787a3.52224,3.52224,0,0,1,3.5183-3.51813H470.8282a3.5222,3.5222,0,0,1,3.51826,3.51813V423.129H320.92529Z" transform="translate(-138 -261.19338)" fill="#3f3d56"/><path d="M327.3762,413.96571V339.893a2.71543,2.71543,0,0,1,2.71233-2.7124H465.18322a2.71543,2.71543,0,0,1,2.71232,2.7124v74.07274a2.71529,2.71529,0,0,1-2.71232,2.71224H330.08853A2.71529,2.71529,0,0,1,327.3762,413.96571Z" transform="translate(-138 -261.19338)" fill="#fff"/><path d="M612.09953,261.1934l135.39086,0,0,161.65984-135.39086,0Z" transform="translate(-138 -261.19338)" fill="#fff"/><path d="M612.09953,261.1934l135.39086,0,0,161.65984-135.39086,0Zm133.00235,2.38849-130.61384,0,0,156.88282,130.61384,0Z" transform="translate(-138 -261.19338)" fill="#e5e5e5"/><rect x="494.44075" y="78.28469" width="94.70846" height="3.65987" fill="#f1f1f1"/><polygon points="578.965 56.406 579.997 56.406 579.997 19.379 543.614 19.379 543.614 20.412 578.965 20.412 578.965 56.406" fill="#cbcbcb"/><polygon points="506.199 59.803 542.582 59.803 542.582 58.771 507.231 58.771 507.231 22.777 506.199 22.777 506.199 59.803" fill="#cbcbcb"/><rect x="494.44075" y="87.8271" width="94.70846" height="3.65987" fill="#f1f1f1"/><rect x="494.44075" y="97.36952" width="94.70846" height="3.65987" fill="#f1f1f1"/><rect x="494.44075" y="114.16417" width="94.70846" height="3.65987" fill="#f1f1f1"/><rect x="494.44075" y="123.70658" width="94.70846" height="3.65987" fill="#f1f1f1"/><rect x="494.44075" y="133.24899" width="94.70846" height="3.65987" fill="#f1f1f1"/><path d="M672.60592,290.6294l.95469-1.16873-1.4386-1.63762-1.28189.79593a7.14877,7.14877,0,0,0-2.498-1.25972l-.16557-1.64281-2.17516-.14079-.3656,1.56283a7.15183,7.15183,0,0,0-2.897.96694l-1.08057-.88258-1.6376,1.43849.73591,1.1853a7.14953,7.14953,0,0,0-1.33235,2.74807l-1.597.161-.14082,2.17514,1.60768.3761a7.14689,7.14689,0,0,0,.937,2.65575l-.88263,1.08052,1.43847,1.63765,1.18536-.73589a7.15056,7.15056,0,0,0,2.5784,1.29043l.172,1.70581,2.17516.14081.387-1.65433a7.15135,7.15135,0,0,0,2.78725-.94745l1.16877.95461,1.6376-1.43848-.7959-1.28207a7.15234,7.15234,0,0,0,1.299-2.64189l1.69034-.17046.14095-2.17518-1.66941-.39053A7.15107,7.15107,0,0,0,672.60592,290.6294Zm-2.279,8.03113a5.81333,5.81333,0,1,1,.53111-8.2041A5.81333,5.81333,0,0,1,670.327,298.66053Z" transform="translate(-138 -261.19338)" fill="#6c63ff"/><path d="M685.65661,306.44452l1.31724-.73638-.73654-2.05155-1.48464.26945a7.14857,7.14857,0,0,0-1.8607-2.08919l.44942-1.5888-1.97141-.92989-.91407,1.31931a7.15183,7.15183,0,0,0-3.04963-.16472l-.68088-1.21778-2.05149.73644.24911,1.37275a7.14969,7.14969,0,0,0-2.2486,2.06662l-1.5445-.43679L670.2,304.96536l1.35717.94032a7.14664,7.14664,0,0,0-.104,2.81429l-1.21781.68079.73641,2.05154,1.37279-.24906a7.15077,7.15077,0,0,0,1.9242,2.14728l-.46659,1.64974,1.9714.92992.96758-1.39656a7.1514,7.1514,0,0,0,2.94042.14254l.73645,1.31718,2.05149-.73645-.26936-1.48478a7.15233,7.15233,0,0,0,2.17855-1.98012l1.6348.46233.93005-1.97137-1.40928-.97641A7.15115,7.15115,0,0,0,685.65661,306.44452Zm-5.06952,6.63269a5.81332,5.81332,0,1,1,3.50737-7.43557A5.81333,5.81333,0,0,1,680.58709,313.07721Z" transform="translate(-138 -261.19338)" fill="#6c63ff"/><path d="M701.781,297.034l.90723-1.206-1.5029-1.57882-1.24906.84652a7.14881,7.14881,0,0,0-2.54635-1.15889l-.23108-1.63488-2.17906-.05375-.30285,1.57619a7.1517,7.1517,0,0,0-2.856,1.08193l-1.115-.83869-1.5788,1.50278.78269,1.15495a7.14936,7.14936,0,0,0-1.22147,2.79912l-1.58926.22473-.05379,2.179,1.62143.31155a7.1468,7.1468,0,0,0,1.0424,2.61619l-.83875,1.11492,1.50277,1.57886,1.155-.78267a7.15046,7.15046,0,0,0,2.62791,1.18636l.24,1.69757,2.17906.05378.32056-1.66848a7.15139,7.15139,0,0,0,2.74716-1.05807l1.206.90713,1.5788-1.50277-.84649-1.24924a7.15232,7.15232,0,0,0,1.19235-2.69169l1.68218-.23787.05391-2.17908-1.68368-.3235A7.15107,7.15107,0,0,0,701.781,297.034Zm-1.9562,8.11578a5.81332,5.81332,0,1,1,.20283-8.21877A5.81333,5.81333,0,0,1,699.82483,305.14977Z" transform="translate(-138 -261.19338)" fill="#6c63ff"/><path d="M415.31682,383.37545l3.87944-.30828.48152-5.60054-3.7693-.96613a18.4351,18.4351,0,0,0-2.11251-6.89842l2.76293-3.23984-3.61949-4.30066-3.56188,2.10825a18.44277,18.44277,0,0,0-6.96975-3.6677l-.28522-3.58663-5.60028-.48169-.8934,3.48519a18.43733,18.43733,0,0,0-7.49359,2.42355l-3.14961-2.68566-4.30068,3.61937,2.16873,3.66412a18.4305,18.4305,0,0,0-3.272,6.48361l-3.58661.285-.48181,5.60035,3.48523.89356a18.44027,18.44027,0,0,0,2.19881,7.10289L378.32858,390.67l3.61943,4.30073,3.7704-2.23173a18.44213,18.44213,0,0,0,6.73767,3.49823l.30852,3.87936,5.60027.48169.96651-3.76954a18.44455,18.44455,0,0,0,7.23634-2.29621l3.33376,2.84268,4.301-3.61922-2.252-3.80479A18.44135,18.44135,0,0,0,415.31682,383.37545ZM396.2987,393.46432a14.99145,14.99145,0,1,1,16.22109-13.65147A14.99148,14.99148,0,0,1,396.2987,393.46432Z" transform="translate(-138 -261.19338)" fill="#6c63ff"/><path d="M839.05949,526.72154H791.04972c0,1.38-49.48,2.5-49.48,2.5a12.86079,12.86079,0,0,0-2.10986,2,12.41027,12.41027,0,0,0-2.90039,8v2a12.5046,12.5046,0,0,0,12.5,12.5h90a12.51088,12.51088,0,0,0,12.5-12.5v-2A12.51739,12.51739,0,0,0,839.05949,526.72154Z" transform="translate(-138 -261.19338)" fill="#3f3d56"/><rect x="648.83591" y="292.03158" width="13" height="84" fill="#3f3d56"/><path d="M749.83591,636.76829c0,1.40461,19.69947.54334,44,.54334s44,.86133,44-.54334-19.69946-12.54333-44-12.54333S749.83591,635.36363,749.83591,636.76829Z" transform="translate(-138 -261.19338)" fill="#3f3d56"/><polygon points="623.571 365.73 611.312 365.729 605.479 333.932 623.573 333.933 623.571 365.73" fill="#ffb8b8"/><path d="M764.69828,638.80662l-39.53052-.00146v-.5a15.386,15.386,0,0,1,15.38587-15.38623h.00158l24.1438.001Z" transform="translate(-138 -261.19338)" fill="#2f2e41"/><path d="M743.235,607.20494l-24.44091-54.80768a20.086,20.086,0,0,1,8.8186-25.78418l53.01343-28.42773,24.19116-2.05762,22.3147-2.02832.16088.27246c.20581.34766,5.00367,8.63477,1.7605,17.72168-2.46,6.89258-8.85888,12.27637-19.0188,16.00195-23.71435,8.69532-51.10913,16.127-61.78637,18.918a3.451,3.451,0,0,0-2.21118,1.75977,3.49827,3.49827,0,0,0-.19629,2.79883l22.70654,51.01464a4.4999,4.4999,0,0,1-3.80933,6.0293l-16.96655,1.23535q-.21606.02051-.43018.02051A4.49694,4.49694,0,0,1,743.235,607.20494Z" transform="translate(-138 -261.19338)" fill="#2f2e41"/><polygon points="631.571 365.73 619.312 365.729 613.479 333.932 631.573 333.933 631.571 365.73" fill="#ffb8b8"/><path d="M772.69828,638.80662l-39.53052-.00146v-.5a15.386,15.386,0,0,1,15.38587-15.38623h.00158l24.1438.001Z" transform="translate(-138 -261.19338)" fill="#2f2e41"/><path d="M752.235,610.20494l-24.44091-54.80768a20.086,20.086,0,0,1,8.8186-25.78418l53.01343-28.42773,24.19116-2.05762,17.478-1.5161-.0024-.23976c.20581.34766,5.00367,8.63477,1.7605,17.72168-2.46,6.89258-3.85888,12.27637-14.0188,16.00195-23.71435,8.69532-51.10913,16.127-61.78637,18.918a3.451,3.451,0,0,0-2.21118,1.75977,3.49827,3.49827,0,0,0-.19629,2.79883l22.70654,51.01464a4.4999,4.4999,0,0,1-3.80933,6.0293l-16.96655,1.23535q-.21606.02051-.43018.02051A4.49694,4.49694,0,0,1,752.235,610.20494Z" transform="translate(-138 -261.19338)" fill="#2f2e41"/><path d="M798.29528,498.61163c-1.17182-.82892-18,8-21,1,14-35,4.35252-50.11366,12.92821-70.18446a24.99166,24.99166,0,0,1,16.56689-14.17969l22.24951-1.123.11524.05567a26.00517,26.00517,0,0,1,14.2193,27.58835c-.07915,21.84318-13.14844,38.50289-8.57862,54.34616a5.12185,5.12185,0,0,1-.48388,3.9834,4.88419,4.88419,0,0,1-3.11573,2.30908l-29.37847-3.91895a4.96435,4.96435,0,0,1-4.01661-.77734Z" transform="translate(-138 -261.19338)" fill="#6c63ff"/><circle cx="683.61454" cy="120.05973" r="24.56103" fill="#ffb8b8"/><path d="M775.22349,464.48326l-42.67432-33.666a10.51742,10.51742,0,0,1-1.03613.30567,11.02711,11.02711,0,0,1-8.81787-1.69141,10.91268,10.91268,0,0,1-4.62647-7.7334,11.00127,11.00127,0,0,1,21.63526-3.80078,10.57392,10.57392,0,0,1,.229,1.45215l42.48145,24.50735,10.57177-6.08642,11.71094,15.332-16.41406,11.69922A10.94192,10.94192,0,0,1,775.22349,464.48326Z" transform="translate(-138 -261.19338)" fill="#ffb8b8"/><path d="M809.9044,457.87712l-24.3487-16.55737,11.44287-16.20685a11.16824,11.16824,0,0,1,13.92865-3.64h0a11.16823,11.16823,0,0,1,5.89441,13.2826Z" transform="translate(-138 -261.19338)" fill="#6c63ff"/><path d="M829.43781,403.797c-1.30495.571-3.97731-9.82732-2.78024-11.90707,1.78024-3.09293,1.675-3.07071,2.8568-5.117s1.44624-4.84713-.08416-6.64762-5.072-1.56163-5.77043.69582c.44931-4.28781-3.79188-7.73455-7.99295-8.70314s-8.63244-.36722-12.85668-1.22916c-4.90243-1.00033-10.00317-5.10973-8.04719-10.50071a7.59318,7.59318,0,0,1,1.481-2.43408c2.25993-2.54094,5.42118-3.62594,8.51206-4.675,6.43-2.18246,13.036-4.39233,19.82211-4.15141a28.79772,28.79772,0,0,1,25.44626,18.60925,26.15767,26.15767,0,0,1,1.08344,4.02534c2.32923,12.52423-4.94368,24.87794-16.75623,29.64714Z" transform="translate(-138 -261.19338)" fill="#2f2e41"/><path d="M480.61893,539.133v2a12.51087,12.51087,0,0,0,12.5,12.5h90a12.5046,12.5046,0,0,0,12.5-12.5v-2a12.41027,12.41027,0,0,0-2.90039-8,12.86079,12.86079,0,0,0-2.10986-2s-49.48-1.12-49.48-2.5H493.11893A12.5174,12.5174,0,0,0,480.61893,539.133Z" transform="translate(-138 -261.19338)" fill="#3f3d56"/><rect x="394.34251" y="291.94306" width="13" height="84" fill="#3f3d56"/><path d="M538.34251,624.13644c-24.30054,0-44,11.13867-44,12.54334s19.69946.54333,44,.54333,44,.86127,44-.54333C582.34251,635.27511,562.643,624.13644,538.34251,624.13644Z" transform="translate(-138 -261.19338)" fill="#3f3d56"/><polygon points="443.761 332.185 461.855 332.184 456.022 363.981 443.763 363.982 443.761 332.185" fill="#ffb8b8"/><path d="M578.63563,621.17187l24.1438-.001h.00159a15.386,15.386,0,0,1,15.38586,15.38623v.5l-39.53051.00146Z" transform="translate(-138 -261.19338)" fill="#2f2e41"/><path d="M595.99342,608.1239q-.21414,0-.43017-.02051L578.59669,606.868a4.49993,4.49993,0,0,1-3.80932-6.0293l22.70654-51.01465a3.49833,3.49833,0,0,0-.19629-2.79882,3.451,3.451,0,0,0-2.21118-1.75977c-10.67725-2.791-38.072-10.22272-61.78638-18.918-10.15991-3.72558-16.55877-9.10937-19.0188-16.002-3.24316-9.08692,1.55469-17.374,1.7605-17.72168l.16089-.27246,22.3147,2.02832,24.19116,2.05761,53.01343,28.42774a20.086,20.086,0,0,1,8.8186,25.78418l-24.44092,54.80768A4.49693,4.49693,0,0,1,595.99342,608.1239Z" transform="translate(-138 -261.19338)" fill="#2f2e41"/><polygon points="437.761 332.185 455.855 332.184 450.022 363.981 437.763 363.982 437.761 332.185" fill="#ffb8b8"/><path d="M572.63563,621.17187l24.1438-.001h.00159a15.386,15.386,0,0,1,15.38586,15.38623v.5l-39.53051.00146Z" transform="translate(-138 -261.19338)" fill="#2f2e41"/><path d="M588.99342,611.1239q-.21414,0-.43017-.02051L571.59669,609.868a4.49993,4.49993,0,0,1-3.80932-6.0293l22.70654-51.01465a3.49833,3.49833,0,0,0-.19629-2.79882,3.451,3.451,0,0,0-2.21118-1.75977c-10.67725-2.791-38.072-10.22272-61.78638-18.918-10.15991-3.72558-16.55877-9.10937-19.0188-16.002-3.24316-9.08692,1.55469-17.374,1.7605-17.72168l.16089-.27246,22.3147,2.02832,24.19116,2.05761,53.01343,28.42774a20.086,20.086,0,0,1,8.8186,25.78418l-24.44092,54.80768A4.49693,4.49693,0,0,1,588.99342,611.1239Z" transform="translate(-138 -261.19338)" fill="#2f2e41"/><path d="M503.5038,417.08047a11.16822,11.16822,0,0,1,14.26251-2.78445h0a11.16826,11.16826,0,0,1,5.002,13.49951l-6.72,18.66663-27.52466-10.45938Z" transform="translate(-138 -261.19338)" fill="#6c63ff"/><path d="M558.53352,509.96277a4.96433,4.96433,0,0,1-4.0166.77734l-42.37848-10.08105a4.88419,4.88419,0,0,1-3.11572-2.30909,5.12182,5.12182,0,0,1-.48389-3.98339c4.56983-15.84327-1.42236-35.48291-8.57861-54.34617a26.00517,26.00517,0,0,1,14.2193-27.58834l.11523-.05567,22.24951,1.12305a24.99165,24.99165,0,0,1,16.5669,14.17969c8.57568,20.0708,11.03125,45.82519,7.50586,78.73486a4.99856,4.99856,0,0,1-2.0835,3.54883Z" transform="translate(-138 -261.19338)" fill="#6c63ff"/><circle cx="521.72011" cy="379.50508" r="24.56102" transform="translate(-74.45489 572.50509) rotate(-80.78253)" fill="#ffb8b8"/><path d="M555.05159,463.05359l-16.41406-11.69922,11.71093-15.332,10.57178,6.08642,42.48145-24.50735a10.57392,10.57392,0,0,1,.229-1.45215,11,11,0,1,1,8.19092,13.22559,10.51761,10.51761,0,0,1-1.03614-.30567l-42.67431,33.666A10.94192,10.94192,0,0,1,555.05159,463.05359Z" transform="translate(-138 -261.19338)" fill="#ffb8b8"/><path d="M526.513,433.00744a11.16823,11.16823,0,0,1,5.89441-13.28259h0a11.16824,11.16824,0,0,1,13.92865,3.64l11.44287,16.20684-24.34869,16.55738Z" transform="translate(-138 -261.19338)" fill="#6c63ff"/><path d="M530.78547,375.9509a4.437,4.437,0,0,1-.59436,5.18643c-3.48864,3.94616-4.41949,10.0541-3.1618,15.31485,1.50928,6.31286,5.51575,11.69345,9.47235,16.83886s8.0506,10.4307,9.78851,16.68451c4.11445,14.80542-6.93817,30.59439-21.14123,36.45975s-30.37756,4.008-45.33209.47376c-11.287-2.66742-22.935-6.59125-30.65381-15.24756s-9.76727-23.31076-1.56415-31.50955c6.43036-6.427,16.44305-6.94452,25.39075-8.55521s19.08282-6.35443,20.28149-15.36658c1.191-8.95465-7.19879-16.35535-8.779-25.24957-1.965-11.06,7.65521-21.59921,18.54059-24.37293s22.3667.3075,32.91113,4.18055c8.11108,2.97927,16.59326,6.866,19.68054,15.69458,1.7168,4.90942.38294,10.50378-3.85058,13.52487-6.44745,4.601-14.73621.15976-21.04889-4.16074Z" transform="translate(-138 -261.19338)" fill="#2f2e41"/></svg>